<svg width="22" height="22" viewBox="0 0 16 16" fill="none" xmlns="http://www.w3.org/2000/svg">
<path fill-rule="evenodd" clip-rule="evenodd" d="M4.66659 1.16699C4.94273 1.16699 5.16659 1.39085 5.16659 1.66699V2.17547C5.60794 2.16699 6.09418 2.16699 6.62897 2.16699H9.37085C9.90565 2.16699 10.3919 2.16699 10.8333 2.17547V1.66699C10.8333 1.39085 11.0571 1.16699 11.3333 1.16699C11.6094 1.16699 11.8333 1.39085 11.8333 1.66699V2.21839C12.0065 2.2316 12.1707 2.24821 12.3259 2.26908C13.1075 2.37417 13.7402 2.59558 14.2391 3.09449C14.738 3.5934 14.9594 4.22603 15.0645 5.00765C15.0981 5.25744 15.1206 5.53005 15.1357 5.82704C15.1557 5.88103 15.1666 5.9394 15.1666 6.00033C15.1666 6.04654 15.1603 6.09129 15.1486 6.13377C15.1666 6.66839 15.1666 7.27553 15.1666 7.96273V9.37126C15.1666 10.5965 15.1666 11.5669 15.0645 12.3263C14.9594 13.1079 14.738 13.7406 14.2391 14.2395C13.7402 14.7384 13.1075 14.9598 12.3259 15.0649C11.5665 15.167 10.5961 15.167 9.37085 15.167H6.62898C5.40381 15.167 4.43338 15.167 3.67391 15.0649C2.89229 14.9598 2.25966 14.7384 1.76075 14.2395C1.26184 13.7406 1.04043 13.1079 0.935346 12.3263C0.833232 11.5669 0.833239 10.5965 0.833252 9.37126V7.96273C0.833246 7.27546 0.833239 6.66839 0.851259 6.13377C0.839526 6.09129 0.833252 6.04654 0.833252 6.00033C0.833252 5.93941 0.844146 5.88103 0.864099 5.82703C0.879219 5.53005 0.901759 5.25743 0.935346 5.00765C1.04043 4.22603 1.26184 3.5934 1.76075 3.09449C2.25966 2.59558 2.89229 2.37417 3.67391 2.26908C3.82919 2.24821 3.99329 2.2316 4.16659 2.21839V1.66699C4.16659 1.39085 4.39045 1.16699 4.66659 1.16699ZM1.84198 6.50033C1.83347 6.93546 1.83325 7.43099 1.83325 8.00033V9.33366C1.83325 10.6049 1.83431 11.508 1.92643 12.1931C2.0166 12.8638 2.18571 13.2503 2.46785 13.5324C2.74999 13.8145 3.13643 13.9837 3.80715 14.0738C4.49226 14.1659 5.39537 14.167 6.66658 14.167H9.33325C10.6045 14.167 11.5076 14.1659 12.1927 14.0738C12.8634 13.9837 13.2499 13.8145 13.532 13.5324C13.8141 13.2503 13.9833 12.8638 14.0734 12.1931C14.1655 11.508 14.1666 10.6049 14.1666 9.33366V8.00033C14.1666 7.43099 14.1664 6.93546 14.1579 6.50033H1.84198ZM14.1121 5.50033H1.88771C1.89839 5.37407 1.91115 5.25448 1.92643 5.14089C2.0166 4.47017 2.18571 4.08373 2.46785 3.80159C2.74999 3.51945 3.13643 3.35034 3.80715 3.26017C4.49226 3.16805 5.39537 3.16699 6.66658 3.16699H9.33325C10.6045 3.16699 11.5076 3.16805 12.1927 3.26017C12.8634 3.35034 13.2499 3.51945 13.532 3.80159C13.8141 4.08373 13.9833 4.47017 14.0734 5.14089C14.0887 5.25448 14.1015 5.37407 14.1121 5.50033ZM7.19125 8.20506C7.37812 8.28246 7.49992 8.46479 7.49992 8.66699V11.3337C7.49992 11.6098 7.27605 11.8337 6.99992 11.8337C6.72378 11.8337 6.49992 11.6098 6.49992 11.3337V9.87413L6.35347 10.0205C6.15821 10.2158 5.84163 10.2158 5.64637 10.0205C5.45111 9.82526 5.45111 9.50873 5.64637 9.31346L6.64637 8.31346C6.78939 8.17046 7.00445 8.12766 7.19125 8.20506ZM9.33325 9.16699C9.24119 9.16699 9.16658 9.24159 9.16658 9.33366V10.667C9.16658 10.7591 9.24119 10.8337 9.33325 10.8337C9.42532 10.8337 9.49992 10.7591 9.49992 10.667V9.33366C9.49992 9.24159 9.42532 9.16699 9.33325 9.16699ZM8.16658 9.33366C8.16658 8.68933 8.68892 8.16699 9.33325 8.16699C9.97758 8.16699 10.4999 8.68933 10.4999 9.33366V10.667C10.4999 11.3113 9.97758 11.8337 9.33325 11.8337C8.68892 11.8337 8.16658 11.3113 8.16658 10.667V9.33366Z" fill="#241571"/>
</svg>
