<svg width="16" height="16" viewBox="0 0 16 16" fill="none" xmlns="http://www.w3.org/2000/svg">
<path d="M8.36892 11.0041C8.27419 11.1077 8.14032 11.1667 7.99992 11.1667C7.85952 11.1667 7.72566 11.1077 7.63092 11.0041L4.96424 8.0874C4.77791 7.8836 4.79207 7.56733 4.99587 7.381C5.19968 7.19467 5.51594 7.2088 5.70227 7.4126L7.49992 9.3788V2C7.49992 1.72386 7.72379 1.5 7.99992 1.5C8.27606 1.5 8.49992 1.72386 8.49992 2V9.3788L10.2976 7.4126C10.4839 7.2088 10.8002 7.19467 11.004 7.381C11.2078 7.56733 11.2219 7.8836 11.0356 8.0874L8.36892 11.0041Z" fill="#48A878"/>
<path d="M2.5 10C2.5 9.72387 2.27615 9.5 2 9.5C1.72386 9.5 1.5 9.72387 1.5 10V10.0366C1.49999 10.9483 1.49997 11.6832 1.57768 12.2612C1.65836 12.8613 1.83095 13.3665 2.23223 13.7677C2.63351 14.1691 3.13876 14.3417 3.73883 14.4223C4.31681 14.5 5.05169 14.5 5.96342 14.5H10.0366C10.9483 14.5 11.6832 14.5 12.2612 14.4223C12.8613 14.3417 13.3665 14.1691 13.7678 13.7677C14.1691 13.3665 14.3417 12.8613 14.4223 12.2612C14.5 11.6832 14.5 10.9483 14.5 10.0366V10C14.5 9.72387 14.2761 9.5 14 9.5C13.7239 9.5 13.5 9.72387 13.5 10C13.5 10.9569 13.4989 11.6243 13.4313 12.1279C13.3655 12.6171 13.2452 12.8761 13.0607 13.0607C12.8761 13.2452 12.6171 13.3655 12.1279 13.4313C11.6243 13.4989 10.9569 13.5 10 13.5H6C5.04306 13.5 4.37565 13.4989 3.87208 13.4313C3.3829 13.3655 3.12385 13.2452 2.93934 13.0607C2.75483 12.8761 2.63453 12.6171 2.56877 12.1279C2.50106 11.6243 2.5 10.9569 2.5 10Z" fill="#48A878"/>
</svg>
