<svg width="22" height="20" viewBox="0 0 16 16" fill="none" xmlns="http://www.w3.org/2000/svg">
<path d="M14 0H2C1.44725 0 1 0.44725 1 1V15C1 15.5527 1.44725 16 2 16H14C14.5527 16 15 15.5527 15 15V1C15 0.44725 14.5527 0 14 0ZM14.5 15C14.5 15.276 14.276 15.5 14 15.5H2C1.724 15.5 1.5 15.276 1.5 15V1C1.5 0.724 1.724 0.5 2 0.5H14C14.276 0.5 14.5 0.724 14.5 1V15Z" fill="#241571"/>
<path d="M12.25 6.25H3.75C3.61175 6.25 3.5 6.36175 3.5 6.5C3.5 6.63825 3.61175 6.75 3.75 6.75H12.25C12.3883 6.75 12.5 6.63825 12.5 6.5C12.5 6.36175 12.3883 6.25 12.25 6.25Z" fill="#241571"/>
<path d="M12.25 4.75H3.75C3.61175 4.75 3.5 4.86175 3.5 5C3.5 5.13825 3.61175 5.25 3.75 5.25H12.25C12.3883 5.25 12.5 5.13825 12.5 5C12.5 4.86175 12.3883 4.75 12.25 4.75Z" fill="#241571"/>
<path d="M12.25 9.25H3.75C3.61175 9.25 3.5 9.36175 3.5 9.5C3.5 9.63825 3.61175 9.75 3.75 9.75H12.25C12.3883 9.75 12.5 9.63825 12.5 9.5C12.5 9.36175 12.3883 9.25 12.25 9.25Z" fill="#241571"/>
<path d="M12.25 10.75H3.75C3.61175 10.75 3.5 10.8618 3.5 11C3.5 11.1382 3.61175 11.25 3.75 11.25H12.25C12.3883 11.25 12.5 11.1382 12.5 11C12.5 10.8618 12.3883 10.75 12.25 10.75Z" fill="#241571"/>
<path d="M12.25 12.25H3.75C3.61175 12.25 3.5 12.3618 3.5 12.5C3.5 12.6382 3.61175 12.75 3.75 12.75H12.25C12.3883 12.75 12.5 12.6382 12.5 12.5C12.5 12.3618 12.3883 12.25 12.25 12.25Z" fill="#241571"/>
<path d="M12.25 7.75H3.75C3.61175 7.75 3.5 7.86175 3.5 8C3.5 8.13825 3.61175 8.25 3.75 8.25H12.25C12.3883 8.25 12.5 8.13825 12.5 8C12.5 7.86175 12.3883 7.75 12.25 7.75Z" fill="#241571"/>
<path d="M3.75 3.75H7.75C7.88825 3.75 8 3.63825 8 3.5C8 3.36175 7.88825 3.25 7.75 3.25H3.75C3.61175 3.25 3.5 3.36175 3.5 3.5C3.5 3.63825 3.61175 3.75 3.75 3.75Z" fill="#241571"/>
</svg>
