<svg width="30" height="30" viewBox="0 0 18 18" fill="none" xmlns="http://www.w3.org/2000/svg">
<path fill-rule="evenodd" clip-rule="evenodd" d="M2.52002 5.39996V12.6C2.52002 13.3953 3.16473 14.04 3.96002 14.04H14.04C14.8353 14.04 15.48 13.3953 15.48 12.6V5.39996C15.48 4.60467 14.8353 3.95996 14.04 3.95996H3.96002C3.16473 3.95996 2.52002 4.60467 2.52002 5.39996Z" stroke="#241571" stroke-linecap="round" stroke-linejoin="round"/>
<path d="M11.1599 7.55957H13.3199" stroke="#241571" stroke-linecap="round"/>
<path d="M11.1599 9.71973H13.3199" stroke="#241571" stroke-linecap="round"/>
<path fill-rule="evenodd" clip-rule="evenodd" d="M8.2799 7.56012C8.2799 8.35543 7.63521 9.00012 6.8399 9.00012C6.04461 9.00012 5.3999 8.35543 5.3999 7.56012C5.3999 6.76483 6.04461 6.12012 6.8399 6.12012C7.22179 6.12012 7.58805 6.27183 7.85813 6.54189C8.1282 6.81194 8.2799 7.17821 8.2799 7.56012Z" stroke="#241571" stroke-linecap="round" stroke-linejoin="round"/>
<path d="M3.95996 11.8804C5.96372 9.62175 8.3174 10.3317 9.71996 11.8804" stroke="#241571" stroke-linecap="round"/>
</svg>
