<svg width="18" height="20" viewBox="0 0 16 16" fill="none" xmlns="http://www.w3.org/2000/svg">
<g clip-path="url(#clip0_820_1951)">
<path d="M15.1227 6.64609L2.09271 0.807668C0.967177 0.303326 -0.247039 1.3136 0.043679 2.51182L0.718459 5.2931C0.814177 5.68753 1.07105 6.02941 1.42327 6.23103L4.03842 7.72837C4.24851 7.84869 4.24898 8.15169 4.03842 8.27228L1.4233 9.76962C1.07108 9.97124 0.814209 10.3131 0.71849 10.7076L0.043679 13.4889C-0.246414 14.6844 0.965771 15.698 2.09271 15.193L15.1227 9.35462C16.2932 8.83015 16.2916 7.16984 15.1227 6.64609ZM14.644 8.28631L1.61402 14.1247C1.37596 14.2315 1.11983 14.0185 1.18136 13.7649L1.85614 10.9836C1.87636 10.9003 1.93061 10.8281 2.00493 10.7856L4.62008 9.28821C5.61561 8.71825 5.61654 7.283 4.62008 6.7125L2.00493 5.21513C1.93058 5.17257 1.87633 5.10038 1.85614 5.0171L1.18136 2.23582C1.12058 1.98532 1.37286 1.76785 1.61402 1.87601L14.644 7.71441C14.8913 7.82522 14.8919 8.17522 14.644 8.28631Z" fill="#241571"/>
<path d="M11.227 7.46655L6.61706 5.40093C6.32194 5.26871 5.97572 5.40078 5.84357 5.69578C5.71135 5.99078 5.84338 6.33712 6.13838 6.46927L9.55621 8.00071L6.13841 9.53214C5.84341 9.66436 5.71141 10.0107 5.8436 10.3056C5.97582 10.6007 6.3221 10.7326 6.6171 10.6005L11.2271 8.53483C11.6873 8.32868 11.6876 7.6729 11.227 7.46655Z" fill="#241571"/>
</g>
<defs>
<clipPath id="clip0_820_1951">
<rect width="16" height="16" fill="white"/>
</clipPath>
</defs>
</svg>
