<svg width="20" height="20" viewBox="0 0 20 20" fill="none" xmlns="http://www.w3.org/2000/svg">
<path fill-rule="evenodd" clip-rule="evenodd" d="M13.9689 2.74012C14.2242 2.65505 14.5052 2.74283 14.6666 2.95805L17.1666 6.29138C17.3737 6.56752 17.3178 6.95927 17.0416 7.16638C16.7654 7.37349 16.3737 7.31752 16.1666 7.04138L14.7916 5.20805V16.6663C14.7916 17.0116 14.5118 17.2913 14.1666 17.2913C13.8214 17.2913 13.5416 17.0116 13.5416 16.6663V3.33305C13.5416 3.06403 13.7138 2.82519 13.9689 2.74012ZM10.8333 7.29138H3.33325V6.04138H10.8333V7.29138ZM10.8333 11.458H4.99992V10.208H10.8333V11.458ZM10.8333 15.6247H6.66659V14.3747H10.8333V15.6247Z" fill="#241571"/>
</svg>
