<svg width="16" height="16" viewBox="0 0 16 16" fill="none" xmlns="http://www.w3.org/2000/svg">
<path d="M8 7.66667C8 7.79927 7.94732 7.92645 7.85355 8.02022C7.75979 8.11399 7.63261 8.16667 7.5 8.16667C7.36739 8.16667 7.24021 8.11399 7.14645 8.02022C7.05268 7.92645 7 7.79927 7 7.66667C7 7.53406 7.05268 7.40688 7.14645 7.31311C7.24021 7.21934 7.36739 7.16667 7.5 7.16667C7.63261 7.16667 7.75979 7.21934 7.85355 7.31311C7.94732 7.40688 8 7.53406 8 7.66667ZM8 9.83333C8 9.96594 7.94732 10.0931 7.85355 10.1869C7.75979 10.2807 7.63261 10.3333 7.5 10.3333C7.36739 10.3333 7.24021 10.2807 7.14645 10.1869C7.05268 10.0931 7 9.96594 7 9.83333C7 9.70072 7.05268 9.57355 7.14645 9.47978C7.24021 9.38601 7.36739 9.33333 7.5 9.33333C7.63261 9.33333 7.75979 9.38601 7.85355 9.47978C7.94732 9.57355 8 9.70072 8 9.83333ZM8 5.5C8 5.63261 7.94732 5.75979 7.85355 5.85355C7.75979 5.94732 7.63261 6 7.5 6C7.36739 6 7.24021 5.94732 7.14645 5.85355C7.05268 5.75979 7 5.63261 7 5.5C7 5.36739 7.05268 5.24021 7.14645 5.14645C7.24021 5.05268 7.36739 5 7.5 5C7.63261 5 7.75979 5.05268 7.85355 5.14645C7.94732 5.24021 8 5.36739 8 5.5Z" fill="#373737"/>
<rect x="0.15" y="0.15" width="15.7" height="15.7" rx="1.85" stroke="#8A8A8A" stroke-width="0.3"/>
</svg>
