<svg width="16" height="16" viewBox="0 0 16 16" fill="none" xmlns="http://www.w3.org/2000/svg">
<rect x="0.15" y="0.15" width="15.7" height="15.7" rx="1.85" stroke="#8A8A8A" stroke-width="0.3"/>
<g clip-path="url(#clip0_1538_2746)">
<path d="M8.625 3.83333L8.83171 3.80749C8.81871 3.70324 8.73008 3.625 8.625 3.625V3.83333ZM7.375 3.83333V3.625C7.26992 3.625 7.18129 3.70324 7.16829 3.80749L7.375 3.83333ZM8.73946 4.74897L8.53275 4.77481C8.54362 4.86187 8.60787 4.93278 8.69342 4.95216L8.73946 4.74897ZM9.77571 5.17849L9.66458 5.35471C9.73879 5.40151 9.83433 5.3968 9.90363 5.34294L9.77571 5.17849ZM10.5043 4.61177L10.6517 4.46446C10.5774 4.39017 10.4594 4.38282 10.3764 4.44733L10.5043 4.61177ZM11.3882 5.49566L11.5527 5.62356C11.6172 5.54063 11.6098 5.42264 11.5355 5.34835L11.3882 5.49566ZM10.8215 6.2243L10.657 6.09639C10.6032 6.16564 10.5985 6.26122 10.6453 6.33543L10.8215 6.2243ZM11.251 7.26054L11.0478 7.30658C11.0672 7.39212 11.1381 7.45638 11.2252 7.46725L11.251 7.26054ZM12.1667 7.375H12.375C12.375 7.26992 12.2968 7.18129 12.1925 7.16829L12.1667 7.375ZM12.1667 8.625L12.1925 8.83171C12.2968 8.81871 12.375 8.73008 12.375 8.625H12.1667ZM11.251 8.73946L11.2252 8.53275C11.1381 8.54362 11.0672 8.60787 11.0478 8.69342L11.251 8.73946ZM10.8215 9.77571L10.6453 9.66458C10.5985 9.73879 10.6032 9.83438 10.657 9.90363L10.8215 9.77571ZM11.3882 10.5043L11.5355 10.6517C11.6098 10.5774 11.6172 10.4594 11.5527 10.3764L11.3882 10.5043ZM10.5043 11.3882L10.3764 11.5527C10.4594 11.6172 10.5774 11.6098 10.6517 11.5355L10.5043 11.3882ZM9.77571 10.8215L9.90363 10.657C9.83433 10.6032 9.73879 10.5985 9.66458 10.6453L9.77571 10.8215ZM8.73946 11.251L8.69342 11.0478C8.60787 11.0672 8.54362 11.1381 8.53275 11.2252L8.73946 11.251ZM8.625 12.1667V12.375C8.73008 12.375 8.81871 12.2968 8.83171 12.1925L8.625 12.1667ZM7.375 12.1667L7.16829 12.1925C7.18129 12.2968 7.26992 12.375 7.375 12.375V12.1667ZM7.26054 11.251L7.46725 11.2252C7.45638 11.1381 7.39212 11.0672 7.30658 11.0478L7.26054 11.251ZM6.2243 10.8215L6.33543 10.6453C6.26122 10.5985 6.16565 10.6032 6.0964 10.657L6.2243 10.8215ZM5.49566 11.3882L5.34835 11.5355C5.42265 11.6098 5.54063 11.6172 5.62357 11.5527L5.49566 11.3882ZM4.61178 10.5043L4.44733 10.3764C4.38282 10.4594 4.39017 10.5774 4.46447 10.6517L4.61178 10.5043ZM5.1785 9.77571L5.34295 9.90363C5.39681 9.83438 5.40151 9.73879 5.35471 9.66458L5.1785 9.77571ZM4.74897 8.73946L4.95216 8.69342C4.93278 8.60787 4.86187 8.54362 4.77481 8.53275L4.74897 8.73946ZM3.83333 8.625H3.625C3.625 8.73008 3.70324 8.81871 3.80749 8.83171L3.83333 8.625ZM3.83333 7.375L3.80749 7.16829C3.70324 7.18129 3.625 7.26992 3.625 7.375H3.83333ZM4.74897 7.26054L4.77481 7.46725C4.86187 7.45638 4.93278 7.39212 4.95216 7.30658L4.74897 7.26054ZM5.1785 6.2243L5.35471 6.33543C5.40151 6.26122 5.39681 6.16565 5.34295 6.09639L5.1785 6.2243ZM4.61178 5.49566L4.46447 5.34835C4.39017 5.42264 4.38282 5.54063 4.44733 5.62357L4.61178 5.49566ZM5.49566 4.61178L5.62357 4.44733C5.54063 4.38282 5.42264 4.39017 5.34835 4.46446L5.49566 4.61178ZM6.2243 5.1785L6.0964 5.34294C6.16565 5.3968 6.26122 5.40151 6.33543 5.35471L6.2243 5.1785ZM7.26054 4.74897L7.30658 4.95216C7.39212 4.93278 7.45638 4.86187 7.46725 4.77481L7.26054 4.74897ZM8.625 3.625H7.375V4.04167H8.625V3.625ZM8.94617 4.72313L8.83171 3.80749L8.41829 3.85918L8.53275 4.77481L8.94617 4.72313ZM9.88683 5.00228C9.55329 4.79191 9.18204 4.6356 8.78546 4.54579L8.69342 4.95216C9.04292 5.03132 9.37025 5.1691 9.66458 5.35471L9.88683 5.00228ZM9.90363 5.34294L10.6322 4.77622L10.3764 4.44733L9.64779 5.01405L9.90363 5.34294ZM10.357 4.75909L11.2409 5.64298L11.5355 5.34835L10.6517 4.46446L10.357 4.75909ZM11.2238 5.36775L10.657 6.09639L10.986 6.3522L11.5527 5.62356L11.2238 5.36775ZM11.4542 7.21454C11.3644 6.81797 11.2081 6.44672 10.9977 6.11316L10.6453 6.33543C10.8309 6.62974 10.9687 6.95706 11.0478 7.30658L11.4542 7.21454ZM12.1925 7.16829L11.2769 7.05382L11.2252 7.46725L12.1408 7.58171L12.1925 7.16829ZM12.375 8.625V7.375H11.9583V8.625H12.375ZM11.2769 8.94617L12.1925 8.83171L12.1408 8.41829L11.2252 8.53275L11.2769 8.94617ZM10.9977 9.88683C11.2081 9.55329 11.3644 9.18204 11.4542 8.78546L11.0478 8.69342C10.9687 9.04292 10.8309 9.37025 10.6453 9.66458L10.9977 9.88683ZM11.5527 10.3764L10.986 9.64779L10.657 9.90363L11.2238 10.6322L11.5527 10.3764ZM10.6517 11.5355L11.5355 10.6517L11.2409 10.357L10.357 11.2409L10.6517 11.5355ZM9.64779 10.986L10.3764 11.5527L10.6322 11.2238L9.90363 10.657L9.64779 10.986ZM8.78546 11.4542C9.18204 11.3644 9.55329 11.2081 9.88683 10.9977L9.66458 10.6453C9.37025 10.8309 9.04292 10.9687 8.69342 11.0478L8.78546 11.4542ZM8.83171 12.1925L8.94617 11.2769L8.53275 11.2252L8.41829 12.1408L8.83171 12.1925ZM7.375 12.375H8.625V11.9583H7.375V12.375ZM7.05382 11.2769L7.16829 12.1925L7.58171 12.1408L7.46725 11.2252L7.05382 11.2769ZM6.11317 10.9977C6.44672 11.2081 6.81797 11.3644 7.21454 11.4542L7.30658 11.0478C6.95707 10.9687 6.62975 10.8309 6.33543 10.6453L6.11317 10.9977ZM5.62357 11.5527L6.3522 10.986L6.0964 10.657L5.36776 11.2238L5.62357 11.5527ZM4.46447 10.6517L5.34835 11.5355L5.64298 11.2409L4.7591 10.357L4.46447 10.6517ZM5.01405 9.64779L4.44733 10.3764L4.77623 10.6322L5.34295 9.90363L5.01405 9.64779ZM4.54579 8.78546C4.6356 9.18204 4.79191 9.55329 5.00228 9.88683L5.35471 9.66458C5.1691 9.37025 5.03132 9.04292 4.95216 8.69342L4.54579 8.78546ZM3.80749 8.83171L4.72313 8.94617L4.77481 8.53275L3.85918 8.41829L3.80749 8.83171ZM3.625 7.375V8.625H4.04167V7.375H3.625ZM4.72313 7.05382L3.80749 7.16829L3.85918 7.58171L4.77481 7.46725L4.72313 7.05382ZM5.00228 6.11316C4.79191 6.44672 4.6356 6.81797 4.54579 7.21454L4.95216 7.30658C5.03132 6.95707 5.1691 6.62974 5.35471 6.33543L5.00228 6.11316ZM4.44733 5.62357L5.01405 6.3522L5.34295 6.09639L4.77623 5.36776L4.44733 5.62357ZM5.34835 4.46446L4.46447 5.34835L4.75909 5.64298L5.64298 4.75909L5.34835 4.46446ZM6.3522 5.01405L5.62357 4.44733L5.36776 4.77622L6.0964 5.34294L6.3522 5.01405ZM7.21454 4.54579C6.81797 4.6356 6.44672 4.79191 6.11317 5.00228L6.33543 5.35471C6.62975 5.1691 6.95707 5.03132 7.30658 4.95216L7.21454 4.54579ZM7.16829 3.80749L7.05382 4.72313L7.46725 4.77481L7.58171 3.85918L7.16829 3.80749Z" fill="black"/>
<path d="M8.00004 9.66683C8.92052 9.66683 9.66671 8.92064 9.66671 8.00016C9.66671 7.07969 8.92052 6.3335 8.00004 6.3335C7.07957 6.3335 6.33337 7.07969 6.33337 8.00016C6.33337 8.92064 7.07957 9.66683 8.00004 9.66683Z" stroke="black" stroke-width="0.5" stroke-linejoin="round"/>
</g>
<defs>
<clipPath id="clip0_1538_2746">
<rect width="10" height="10" fill="white" transform="translate(3 3)"/>
</clipPath>
</defs>
</svg>
