<svg width="32" height="32" viewBox="0 0 32 32" fill="none" xmlns="http://www.w3.org/2000/svg">
<path fill-rule="evenodd" clip-rule="evenodd" d="M30.3333 15.9997C30.3333 23.9158 23.9161 30.333 16 30.333C8.08387 30.333 1.66667 23.9158 1.66667 15.9997C1.66667 8.08354 8.08387 1.66634 16 1.66634C23.9161 1.66634 30.3333 8.08354 30.3333 15.9997ZM16 23.6663C15.4477 23.6663 15 23.2186 15 22.6663V13.1935C15 12.6411 15.4477 12.1934 16 12.1934C16.5523 12.1934 17 12.6411 17 13.1934V22.6663C17 23.2186 16.5523 23.6663 16 23.6663ZM16 10.6663C16.7364 10.6663 17.3333 10.0694 17.3333 9.33301C17.3333 8.59661 16.7364 7.99968 16 7.99968H15.9867C15.2503 7.99968 14.6533 8.59661 14.6533 9.33301C14.6533 10.0694 15.2503 10.6663 15.9867 10.6663H16Z" fill="#3A88F8"/>
</svg>
